<?xml version="1.0" standalone="yes"?>
<svg xmlns="http://www.w3.org/2000/svg" width="3227" height="996">
<path style="fill:#ffffff; stroke:none;" d="M0 0L0 996L3227 996L3227 0L0 0z"/>
<path style="fill:#000000; stroke:none;" d="M332 324L332 332L392 332L392 607L525 607L525 663L400 663L367 663C362.654 663 356.093 664.196 352.184 661.972C344.392 657.539 337.303 641.729 333 634L332 634L332 670L652 670L652 669C616.121 668.901 579.244 645.478 562.785 614C546.605 583.057 550 547.725 550 514C550 455.595 539.536 385.163 593 345.378C600.938 339.471 609.717 334.962 619 331.587C630.214 327.509 642.05 325.008 654 325L625 324L559 324L332 324z"/>
<path style="fill:#95c15c; stroke:none;" d="M654 324.424C639.125 326.378 624.887 328.051 611 334.312C539.101 366.725 550 449.083 550 514C550 554.527 545.976 597.478 573.465 631C604.116 668.38 655.824 674.48 701 668.714C712.318 667.27 723.611 664.448 734 659.691C742.651 655.73 750.718 650.697 758 644.561C798.632 610.322 795 556.858 795 509C795 446.066 804.816 366.597 735 335.59C723.769 330.602 712.177 327.177 700 325.428C685.405 323.333 668.659 322.499 654 324.424z"/>
<path style="fill:#000000; stroke:none;" d="M690 324L690 325C702.508 325.008 715.405 327.936 727 332.604C736.944 336.607 746.557 341.62 755 348.286C804.797 387.603 795 454.77 795 511C795 545.624 797.705 581.049 781.73 613C765.397 645.665 729.844 668.898 693 669L693 670L1194 670L1194 669C1158.11 668.703 1121.82 645.38 1105.32 614C1089.17 583.292 1092 547.534 1092 514C1092 456.008 1081.91 382.355 1137 344.348C1144.81 338.959 1153.03 334.479 1162 331.345C1173.24 327.421 1185.1 325.001 1197 325C1185.54 320.193 1165.47 324 1153 324L1049 324L690 324z"/>
<path style="fill:#95c15c; stroke:none;" d="M1197 324.424C1180.57 326.581 1165.21 328.688 1150 335.889C1081.53 368.296 1092 451.571 1092 514C1092 557.021 1089.2 601.754 1120.17 635.999C1150.62 669.664 1201.62 674.123 1244 668.714C1255.36 667.265 1266.49 664.104 1277 659.572C1285.18 656.044 1293.32 650.823 1300 644.946C1340.87 608.988 1337 558.436 1337 509C1337 454.685 1347.07 391.398 1302 351.174C1295.19 345.099 1287.19 340.221 1279 336.258C1267.65 330.762 1255.43 327.528 1243 325.59C1228.44 323.32 1211.65 322.501 1197 324.424z"/>
<path style="fill:#000000; stroke:none;" d="M1232 324L1232 325C1244.21 325.008 1256.56 327.859 1268 332.053C1277.66 335.597 1286.65 340.419 1295 346.428C1347.75 384.379 1337 453.375 1337 510C1337 544.302 1340.32 579.093 1325.22 611C1309.39 644.451 1273.43 668.897 1236 669L1236 670L2895 670L2895 608L2873 608L2873 576C2873 571.423 2873.52 565.865 2869.72 562.514C2863.88 557.367 2855.66 561.63 2853.15 568.001C2848.81 579.002 2852 596.257 2852 608L2830 608L2830 542L2852 542L2852 548C2866.85 539.061 2891.91 536.292 2894 560L2895 560L2895 324L1232 324z"/>
<path style="fill:#95c15c; stroke:none;" d="M1696 331L1696 576L1696 615L1696.7 634L1705.31 648L1715.33 661.972L1729 663L1763 663L1889 663L1889 607L1756 607L1756 516L1842 516L1842 460L1756 460L1755.3 417L1737 388L1889 388L1889 331L1696 331M332 332L332 576L332 615L332.702 634L341.192 648L351.326 661.972L365 663L399 663L525 663L525 607L392 607L392 332L332 332M803 332C808.068 345.843 819.343 358.634 827.308 371C845.154 398.707 863.395 426.173 881.053 454C887.665 464.42 894.625 474.625 901.308 485C903.433 488.299 908.245 493.561 908.454 497.576C908.662 501.556 903.425 506.857 901.333 510C894.521 520.236 888.13 530.754 881.333 541C863.53 567.836 846.529 595.205 828.667 622C820.543 634.186 806.357 649.714 803 664L849 664C854.601 664 863.494 665.688 868.674 663.397C872.734 661.6 875.193 655.564 877.424 652C882.901 643.254 888.617 634.591 894.333 626C914.581 595.571 933.886 564.514 954.003 534C959.262 526.023 964.368 517.949 969.667 510C971.907 506.639 976.112 502.219 976.303 498C976.492 493.839 972.272 489.347 970.192 486C964.33 476.564 958.158 467.246 952 458C932.408 428.584 913.446 398.713 894.308 369C888.042 359.272 879.625 338.998 869.674 333.028C864.926 330.178 855.389 332 850 332L803 332M990 475C1001.73 469.007 1010.44 446.889 1017.67 436C1040.3 401.885 1065.09 367.76 1085 332L1037 332L1017.33 333.028L1006 349L981.333 387L964.333 413L958.724 425L967.656 440L990 475M1391 332L1391 663L1446 663L1446 417L1447 417L1475.75 475L1536.75 595L1560.75 642L1571.64 661.972L1590 663L1638 663L1638 332L1583 332L1583 566C1551.53 512.076 1525.18 453.859 1497.25 398C1489.54 382.593 1481.45 367.401 1473.75 352C1471.14 346.772 1468.24 336.434 1463.36 333.028C1458.96 329.955 1448.2 332 1443 332L1391 332z"/>
<path style="fill:#000000; stroke:none;" d="M652 379.428C645.434 380.369 639.009 381.915 633 384.785C596.344 402.288 604 449.56 604 483L604 541C604 565.873 604.919 593.247 629 607.525C639.028 613.471 649.811 614.107 661 615.576C671.34 616.933 682.7 616.05 693 614.711C699.122 613.915 705.378 612.24 711 609.688C748.022 592.879 740 546.093 740 513L740 457C740 425.725 739.073 392.074 703 381.439C696.458 379.51 689.777 379 683 379C672.843 378.999 662.065 377.986 652 379.428M1195 379.428C1188.16 380.408 1181.28 381.926 1175 384.89C1138.53 402.107 1147 451.192 1147 484L1147 545C1147 567.587 1148.04 591.941 1169 605.895C1179.78 613.073 1191.62 613.951 1204 615.576C1214.34 616.933 1225.7 616.05 1236 614.711C1241.85 613.95 1247.58 612.282 1253 609.985C1290.3 594.193 1283 546.649 1283 514C1283 472.134 1298.03 396.395 1245 381.428C1238.77 379.671 1232.45 379.003 1226 379C1215.84 378.996 1205.06 377.986 1195 379.428z"/>
<path style="fill:#95c15c; stroke:none;" d="M2256 465L2239 451L2238 451C2231.35 457.509 2223.83 462.994 2214 461.814C2194.89 459.52 2185.88 435.104 2196.64 420C2203.74 410.04 2215.75 405.976 2227 411.328C2230.65 413.066 2234.82 418.382 2239 418.168C2244.82 417.871 2251.33 409.192 2256 406C2244.33 380.989 2202.79 381.56 2184 396.518C2172.57 405.623 2167.08 421.682 2167.08 436C2167.08 449.565 2172.21 464.768 2183.01 473.482C2201.94 488.747 2243.97 490.778 2256 465M2471 396L2471 417L2464 417L2464 435L2471 435C2471 456.532 2466.47 488.673 2498 484.13C2502.45 483.489 2506.1 482.219 2510 480L2505 464C2488.18 466.112 2493 447.016 2493 435L2509 435L2509 417L2493 417L2493 394L2471 396M2288 425L2287 425L2287 417L2265 417L2265 483L2287 483C2287 464.987 2281.95 439.207 2307 439L2307 416C2299.62 416.062 2291.61 417.942 2288 425M2333 456L2378 456C2378 443.549 2377.06 431.978 2366.99 423.213C2345.5 404.518 2314.42 421.155 2311.29 447C2308.13 473.019 2331.74 487.695 2355 483.855C2360.67 482.919 2377.66 477.285 2373.35 469C2365.66 454.207 2360.06 465.471 2349 466.359C2341.56 466.956 2336.64 461.715 2333 456M2435 477L2435 483L2455 483L2455 417L2433 417L2433 422C2427.73 418.254 2422.52 416.053 2416 416.005C2410.75 415.965 2405.63 416.713 2401 419.367C2383.36 429.478 2380.4 457.208 2391.79 472.996C2401.83 486.919 2422.87 488.472 2435 477M2535 456L2567 456C2570.15 456 2576.74 457.216 2578.97 454.397C2582.39 450.084 2578.97 439.396 2577.12 435C2569.95 417.885 2548.74 411.155 2532 418.529C2498.16 433.432 2512.71 483.375 2547 484.896C2553.94 485.204 2582.63 479.357 2574.66 468C2572.96 465.567 2569 460.352 2565.83 459.921C2562.43 459.457 2558.95 463.728 2556 465.029C2547.18 468.925 2539.36 463.551 2535 456z"/>
<path style="fill:#000000; stroke:none;" d="M2334 443L2356 443C2353.15 431.043 2336.5 430.625 2334 443M2535 443L2558 443C2553.9 430.275 2539.94 431.799 2535 443M2419 435.573C2401.84 438.903 2405.82 468.693 2424 464.605C2440.03 461.001 2435.57 432.358 2419 435.573z"/>
<path style="fill:#95c15c; stroke:none;" d="M2719 510.742C2702.48 517.145 2715.21 540.119 2731 533.852C2747.47 527.311 2734.69 504.667 2719 510.742M2163 608L2188 608C2189.03 603.527 2190.26 595.863 2193.7 592.603C2197.46 589.041 2220.64 589.186 2224.49 592.603C2228.58 596.229 2227.05 604.98 2232.28 607.397C2238.05 610.065 2248.68 608 2255 608C2251.97 587.465 2240.2 566.578 2233.34 547C2229.96 537.354 2227.18 522.389 2220.91 514.318C2218 510.564 2203.49 510.657 2199.39 512.603C2193.81 515.26 2190.69 531.398 2188.69 537C2180.3 560.498 2169.57 583.941 2163 608M2341 521L2341 542L2333 542L2333 560L2341 560C2341 572.558 2336.86 593.977 2346.21 603.892C2351.68 609.684 2372.97 613.084 2377.93 604.606C2380.35 600.471 2375.73 591.902 2374 588C2358.4 593.63 2363 569.541 2363 560L2379 560L2379 542L2363 542L2363 519L2341 521M2666 521L2666 542L2658 542L2658 560L2666 560C2666 572.344 2662.03 592.82 2670.39 602.956C2675.58 609.237 2697.9 613.779 2702.88 604.606C2705.09 600.543 2700.32 592.042 2699 588C2683.2 592.952 2688 570.051 2688 560L2703 560L2703 542L2688 542L2688 519L2666 521M990 520L967.667 555L958.697 571L964.308 582L979.808 606L1007 648L1018.38 663.397L1038 664L1085 664C1079.06 650.232 1068.54 637.548 1060.34 625C1045.8 602.728 1031.64 580.206 1017 558C1010.05 547.466 1001.23 525.822 990 520M2417 540.514C2408.25 541.078 2399.77 543.329 2393.09 549.326C2368.07 571.79 2389.1 610.572 2420 609.406C2466.71 607.643 2463.66 537.508 2417 540.514M2487 548L2487 542L2465 542L2465 608L2487 608C2487 596.324 2484.92 582.374 2487.68 571C2488.78 566.482 2492.6 560.406 2498 560.778C2503.01 561.123 2505.7 566.717 2506.53 571C2508.79 582.651 2507 596.144 2507 608L2529 608C2529 596.115 2526.72 581.562 2529.53 570C2530.64 565.47 2534.68 560.016 2539.99 560.867C2545.13 561.69 2547.51 567.431 2547.91 572C2548.92 583.832 2548 596.123 2548 608L2570 608C2570 583.076 2577.76 531.928 2537 541.529C2531.73 542.771 2527.52 546.216 2523 549C2516.11 535.524 2496.17 540.208 2487 548M2629 603L2629 608L2650 608L2650 542L2628 542L2628 547C2623.16 543.572 2618.98 541.369 2613 540.769C2582.36 537.693 2569.68 579.339 2588.21 599.96C2595.12 607.645 2604.17 609.243 2614 608.985C2619.98 608.829 2624.32 606.558 2629 603M2782 540.514C2773.24 541.078 2764.67 543.083 2758.04 549.185C2734.06 571.246 2752.87 610.541 2784 609.406C2793.47 609.061 2802.9 606.734 2809.82 599.816C2832.55 577.084 2812.93 538.521 2782 540.514M2852 548L2852 542L2830 542L2830 608L2852 608C2852 596.446 2849.33 581.063 2852.8 570C2854.46 564.713 2859.94 558.893 2866 560.934C2871.32 562.728 2872.85 567.952 2872.99 573C2873.29 584.65 2873 596.346 2873 608L2895 608C2895 591.396 2899 568.656 2892.86 553C2886.23 536.102 2863.62 538.456 2852 548z"/>
<path style="fill:#000000; stroke:none;" d="M2209 542L2200 571L2219 571L2209 542z"/>
<path style="fill:#95c15c; stroke:none;" d="M2261 542C2261 558.526 2257.27 580.356 2263.09 596C2269.28 612.618 2291.53 612.293 2303 602L2303 608L2325 608L2325 542L2303 542C2303 553.554 2305.67 568.937 2302.2 580C2300.67 584.852 2295.71 590.722 2290 589.012C2284.65 587.405 2283.15 581.945 2283.01 577C2282.71 565.351 2283 553.654 2283 542L2261 542M2714 542L2714 608L2736 608L2736 542L2714 542z"/>
<path style="fill:#000000; stroke:none;" d="M2416 560.548C2398.98 564.24 2403.51 593.153 2421 589.591C2438.2 586.089 2433.59 556.731 2416 560.548M2613 560.537C2596.38 564.357 2600.53 593.379 2618 589.602C2635 585.926 2630.26 556.569 2613 560.537M2781 560.548C2763.8 564.28 2768.52 593.475 2786 589.463C2802.94 585.573 2798.51 556.749 2781 560.548z"/>
</svg>
